<?xml version="1.0" encoding="UTF-8" standalone="no"?>
<!-- Created with Inkscape (http://www.inkscape.org/) -->

<svg
   xmlns:dc="http://purl.org/dc/elements/1.1/"
   xmlns:cc="http://creativecommons.org/ns#"
   xmlns:rdf="http://www.w3.org/1999/02/22-rdf-syntax-ns#"
   xmlns:svg="http://www.w3.org/2000/svg"
   xmlns="http://www.w3.org/2000/svg"
   xmlns:sodipodi="http://sodipodi.sourceforge.net/DTD/sodipodi-0.dtd"
   xmlns:inkscape="http://www.inkscape.org/namespaces/inkscape"
   width="16px"
   height="16px"
   id="svg3387"
   version="1.1"
   inkscape:version="0.48.3.1 r9886"
   sodipodi:docname="bitcoinbox.svg"
   inkscape:export-filename="/tmp/bitcoinbox.png"
   inkscape:export-xdpi="90"
   inkscape:export-ydpi="90">
  <defs
     id="defs3389" />
  <sodipodi:namedview
     id="base"
     pagecolor="#ffffff"
     bordercolor="#666666"
     borderopacity="1.0"
     inkscape:pageopacity="0.0"
     inkscape:pageshadow="2"
     inkscape:zoom="11.098901"
     inkscape:cx="14.083247"
     inkscape:cy="9.5333157"
     inkscape:current-layer="layer1"
     showgrid="true"
     inkscape:grid-bbox="true"
     inkscape:document-units="px"
     showguides="true"
     inkscape:guide-bbox="true"
     inkscape:window-width="1177"
     inkscape:window-height="718"
     inkscape:window-x="1669"
     inkscape:window-y="62"
     inkscape:window-maximized="0" />
  <metadata
     id="metadata3392">
    <rdf:RDF>
      <cc:Work
         rdf:about="">
        <dc:format>image/svg+xml</dc:format>
        <dc:type
           rdf:resource="http://purl.org/dc/dcmitype/StillImage" />
        <dc:title></dc:title>
      </cc:Work>
    </rdf:RDF>
  </metadata>
  <g
     id="layer1"
     inkscape:label="Layer 1"
     inkscape:groupmode="layer">
    <g
       id="g4365"
       transform="matrix(1.0325848,0,0,1.0325848,-0.2606785,-1.0617462)">
      <path
         id="path4305"
         d="m 13.429667,4.7627348 -4.6689168,-2.69572 c -0.235262,-0.135794 -0.498101,-0.203881 -0.76075,-0.203881 -0.26265,0 -0.525679,0.0679 -0.760751,0.203881 l -4.668916,2.69572 c -0.470715,0.271778 -0.760751,0.774063 -0.760751,1.31762 v 5.3914392 c 0,0.543556 0.290036,1.045842 0.760751,1.31781 l 4.668916,2.695149 c 0.2354519,0.135794 0.498101,0.203691 0.760751,0.203691 0.262649,0 0.525298,-0.0679 0.76075,-0.203691 l 4.6689168,-2.695339 c 0.470715,-0.271969 0.760751,-0.774064 0.760751,-1.31781 V 6.0803548 c 0,-0.543557 -0.290226,-1.045842 -0.760751,-1.31762 z m -5.4296668,-1.3781 3.9081658,2.256576 -3.9077858,2.2561959 -3.908546,-2.2561959 3.908166,-2.256576 z M 3.3310832,11.471794 V 6.9588307 l 3.908166,2.256386 V 13.72799 L 3.3310832,11.471794 z M 8.7607502,13.7278 V 9.2154077 L 12.668917,6.9592117 V 11.471984 L 8.7607502,13.7278 z"
         inkscape:connector-curvature="0"
         style="fill:#000000" />
      <path
         sodipodi:nodetypes="cc"
         inkscape:connector-curvature="0"
         id="path4353"
         d="M 6.9501942,6.2120995 9.0498058,4.9975538"
         style="fill:none;stroke:#000000;stroke-width:1.06700003;stroke-linecap:round;stroke-linejoin:miter;stroke-miterlimit:4;stroke-opacity:1;stroke-dasharray:none" />
    </g>
  </g>
</svg>
