<?xml version="1.0" encoding="UTF-8" standalone="no"?>
<!-- Created with Inkscape (http://www.inkscape.org/) -->

<svg
   xmlns:dc="http://purl.org/dc/elements/1.1/"
   xmlns:cc="http://creativecommons.org/ns#"
   xmlns:rdf="http://www.w3.org/1999/02/22-rdf-syntax-ns#"
   xmlns:svg="http://www.w3.org/2000/svg"
   xmlns="http://www.w3.org/2000/svg"
   xmlns:sodipodi="http://sodipodi.sourceforge.net/DTD/sodipodi-0.dtd"
   xmlns:inkscape="http://www.inkscape.org/namespaces/inkscape"
   width="16px"
   height="16px"
   id="svg3387"
   version="1.1"
   inkscape:version="0.48.3.1 r9886"
   sodipodi:docname="bitcoinbox.svg"
   inkscape:export-filename="/tmp/bitcoinbox.png"
   inkscape:export-xdpi="90"
   inkscape:export-ydpi="90">
  <defs
     id="defs3389" />
  <sodipodi:namedview
     id="base"
     pagecolor="#ffffff"
     bordercolor="#666666"
     borderopacity="1.0"
     inkscape:pageopacity="0.0"
     inkscape:pageshadow="2"
     inkscape:zoom="11.098901"
     inkscape:cx="4.0822568"
     inkscape:cy="9.5333157"
     inkscape:current-layer="layer1"
     showgrid="true"
     inkscape:grid-bbox="true"
     inkscape:document-units="px"
     showguides="true"
     inkscape:guide-bbox="true"
     inkscape:window-width="1362"
     inkscape:window-height="636"
     inkscape:window-x="176"
     inkscape:window-y="171"
     inkscape:window-maximized="0" />
  <metadata
     id="metadata3392">
    <rdf:RDF>
      <cc:Work
         rdf:about="">
        <dc:format>image/svg+xml</dc:format>
        <dc:type
           rdf:resource="http://purl.org/dc/dcmitype/StillImage" />
        <dc:title></dc:title>
      </cc:Work>
    </rdf:RDF>
  </metadata>
  <g
     id="layer1"
     inkscape:label="Layer 1"
     inkscape:groupmode="layer">
    <path
       style="fill:#ff6600;fill-opacity:1"
       inkscape:connector-curvature="0"
       d="m 33.428374,-6.1448088 -4.821053,-2.7835595 c -0.242928,-0.1402188 -0.514331,-0.2105244 -0.785539,-0.2105244 -0.271208,0 -0.542808,0.070112 -0.785539,0.2105244 l -4.821052,2.7835595 c -0.486053,0.2806338 -0.78554,0.7992856 -0.78554,1.3605543 v 5.56711831 c 0,0.56126799 0.299487,1.07991999 0.78554,1.36074999 l 4.821052,2.78297 c 0.243124,0.140219 0.514331,0.210329 0.785539,0.210329 0.271208,0 0.542415,-0.07011 0.785539,-0.210329 l 4.821053,-2.783166 c 0.486053,-0.280831 0.785539,-0.799286 0.785539,-1.36074999 V -4.7842545 c 0,-0.5612687 -0.299683,-1.0799205 -0.785539,-1.3605543 z m -5.606592,-1.4230052 4.035513,2.3301061 -4.03512,2.3297136 -4.035905,-2.3297136 4.035512,-2.3301061 z M 23.00073,0.78286381 V -3.8771536 l 4.035513,2.3299099 V 3.1125778 L 23.00073,0.78286381 z m 5.606591,2.32951699 v -4.6594273 l 4.035514,-2.3297137 V 0.78305981 L 28.607321,3.1123808 z"
       id="path4305" />
    <path
       style="fill:#ffffff;stroke:#000000;stroke-width:1.10176801999999996;stroke-linecap:round;stroke-linejoin:miter;stroke-miterlimit:4;stroke-opacity:0;stroke-dasharray:none"
       d="M 6.9159864,5.3527733 9.0840134,4.0986519"
       id="path4353"
       inkscape:connector-curvature="0"
       sodipodi:nodetypes="cc" />
    <rect
       style="fill:#000000;fill-opacity:1;stroke:#000000;stroke-width:0.48136553;stroke-linecap:round;stroke-linejoin:miter;stroke-miterlimit:4;stroke-opacity:0;stroke-dasharray:none"
       id="rect3755"
       width="10.740417"
       height="10.920613"
       x="2.6936531"
       y="2.656029"
       ry="1.4419626" />
  </g>
</svg>
