<?xml version="1.0" encoding="UTF-8" standalone="no"?>
<!-- Created with Inkscape (http://www.inkscape.org/) -->

<svg
   xmlns:dc="http://purl.org/dc/elements/1.1/"
   xmlns:cc="http://creativecommons.org/ns#"
   xmlns:rdf="http://www.w3.org/1999/02/22-rdf-syntax-ns#"
   xmlns:svg="http://www.w3.org/2000/svg"
   xmlns="http://www.w3.org/2000/svg"
   xmlns:sodipodi="http://sodipodi.sourceforge.net/DTD/sodipodi-0.dtd"
   xmlns:inkscape="http://www.inkscape.org/namespaces/inkscape"
   width="63.779526"
   height="148.81889"
   id="svg2"
   version="1.1"
   inkscape:version="0.48.3.1 r9886"
   sodipodi:docname="sticker.svg">
  <defs
     id="defs4" />
  <sodipodi:namedview
     id="base"
     pagecolor="#ffffff"
     bordercolor="#666666"
     borderopacity="1.0"
     inkscape:pageopacity="0.0"
     inkscape:pageshadow="2"
     inkscape:zoom="2.8"
     inkscape:cx="-20.370307"
     inkscape:cy="88.587266"
     inkscape:document-units="px"
     inkscape:current-layer="layer1"
     showgrid="false"
     units="mm"
     inkscape:window-width="1152"
     inkscape:window-height="736"
     inkscape:window-x="1744"
     inkscape:window-y="121"
     inkscape:window-maximized="0" />
  <metadata
     id="metadata7">
    <rdf:RDF>
      <cc:Work
         rdf:about="">
        <dc:format>image/svg+xml</dc:format>
        <dc:type
           rdf:resource="http://purl.org/dc/dcmitype/StillImage" />
        <dc:title></dc:title>
      </cc:Work>
    </rdf:RDF>
  </metadata>
  <g
     inkscape:label="Ebene 1"
     inkscape:groupmode="layer"
     id="layer1"
     transform="translate(0,-903.54329)">
    <rect
       style="fill:none;stroke:#000000;stroke-width:1.7267698;stroke-opacity:1"
       id="rect2985"
       width="62.185078"
       height="147.4014"
       x="0.73475742"
       y="904.44946" />
    <path
       inkscape:connector-curvature="0"
       d="m 43.887328,982.88298 c 8.57e-4,0 8.57e-4,0 0,0 h 6.021995 c 1.404072,0 2.553406,1.01209 2.553406,2.24807 l -0.0017,1.6751 c 0,1.23597 -1.149335,2.24807 -2.553407,2.24807 h -6.02028 c 0,0 0,0 -8.58e-4,0 -2.362136,0 -4.294562,-1.38863 -4.294562,-3.08606 0,-1.69741 1.933281,-3.08518 4.29542,-3.08518 z m -7.414917,10.65104 c 0,1.69747 1.931566,3.08429 4.293705,3.08429 8.57e-4,0 8.57e-4,0 0.0017,0 h 4.578464 c 1.404075,0 2.553408,-1.01026 2.553408,-2.24626 l 8.59e-4,-1.67514 c 0,-1.23596 -1.148476,-2.24806 -2.552551,-2.24806 h -4.58018 c -8.59e-4,0 -8.59e-4,0 -0.0017,0 -2.362139,-8.6e-4 -4.293705,1.38778 -4.293705,3.08517 z m -3.122929,7.56518 c 0,1.6956 1.932425,3.0843 4.294562,3.0843 0,0 0,0 8.59e-4,0 h 3.138367 c 1.403216,0 2.553408,-1.0104 2.553408,-2.2465 l 8.57e-4,-1.6751 c 0,-1.23594 -1.149333,-2.24626 -2.552551,-2.24626 h -3.140081 c -8.59e-4,0 -8.59e-4,0 -8.59e-4,0 -2.362137,-9.4e-4 -4.294562,1.38602 -4.294562,3.08356 z m 7.986154,-45.98381 c 0.493183,-0.14923 1.013816,-0.21957 1.536162,-0.20584 0.522347,0.0121 1.051554,0.11058 1.574758,0.30105 0.525779,0.19126 0.993231,0.45543 1.406647,0.7848 0.406555,0.32336 0.759076,0.71276 1.044693,1.14504 0.38683,0.5824 1.173352,0.74536 1.76174,0.3611 0.588392,-0.39196 0.744494,-1.17592 0.356808,-1.76517 -0.42714,-0.64757 -0.957206,-1.23681 -1.575616,-1.73515 -0.625271,-0.49147 -1.335456,-0.90146 -2.122836,-1.18794 -0.777944,-0.28388 -1.588482,-0.42711 -2.381867,-0.452 -0.795098,-0.0162 -1.582477,0.091 -2.325255,0.3165 -0.676734,0.20155 -1.057559,0.90315 -0.857712,1.5799 0.201563,0.67073 0.904885,1.0507 1.582478,0.85771 m -0.738489,-4.91297 c 1.784039,-0.36366 3.68473,-0.26246 5.522805,0.40655 1.844938,0.67158 3.36223,1.81406 4.49784,3.23959 0.431429,0.5515 1.234247,0.64757 1.783183,0.21099 0.554082,-0.43573 0.647572,-1.23682 0.208425,-1.78832 -1.412652,-1.78577 -3.322777,-3.21986 -5.621443,-4.05098 -2.289234,-0.83885 -4.677103,-0.9675 -6.908869,-0.50949 -0.690457,0.14067 -1.127891,0.81568 -0.988083,1.50529 0.144953,0.68789 0.815683,1.12874 1.506142,0.98637 m -0.691316,-5.16686 c 2.595435,-0.46916 5.334968,-0.28475 7.993872,0.68361 2.662337,0.96834 4.885527,2.59029 6.571788,4.61791 0.445153,0.53693 1.24797,0.61241 1.786613,0.16553 0.54722,-0.44858 0.61841,-1.25397 0.171544,-1.79261 -1.965018,-2.36127 -4.566459,-4.25682 -7.659367,-5.38215 -3.091194,-1.12531 -6.298176,-1.34402 -9.317321,-0.79594 -0.694748,0.12351 -1.149335,0.78394 -1.025824,1.48041 0.127793,0.6913 0.789095,1.14934 1.478695,1.02324 m -0.699036,-5.16 c 3.400828,-0.58238 6.992067,-0.31134 10.471804,0.95463 3.482308,1.26685 6.407964,3.36825 8.645733,6.00314 0.451157,0.53693 1.259979,0.60126 1.794333,0.14668 0.535212,-0.45632 0.59954,-1.25999 0.145812,-1.79522 -2.51138,-2.96081 -5.810141,-5.32551 -9.713586,-6.74674 -3.90173,-1.41953 -7.951845,-1.73001 -11.772094,-1.07386 -0.695603,0.11923 -1.15791,0.77364 -1.042118,1.46841 0.119227,0.69389 0.770223,1.16048 1.470116,1.04296 m 14.964498,35.44325 c 0,0 0,0 0,0 h -2.411028 l -2.260072,6.16952 h 4.669384 c 8.57e-4,0 8.57e-4,0 8.57e-4,0 2.362139,0 4.294563,-1.38862 4.294563,-3.08604 8.57e-4,-1.6957 -1.931567,-3.08348 -4.293704,-3.08348 z m -29.493277,15.81622 c 0,-1.5782 -0.243589,-3.11436 -0.677591,-4.56647 l 11.823556,4.3306 c -0.625272,0.74705 -0.98637,1.65194 -0.98637,2.63486 0,1.14763 0.491469,2.18637 1.318304,2.99684 -2.127126,0.42366 -3.761923,1.73687 -4.270546,3.436 l -8.294931,-3.03882 0,0 c 0.693889,-1.77468 1.087578,-3.73103 1.087578,-5.79301 z m 4.762874,4.98839 c 1.297718,0.47612 2.735243,-0.19126 3.211273,-1.48889 0.475172,-1.29857 -0.192985,-2.73529 -1.488987,-3.20961 -1.301149,-0.47774 -2.738674,0.18957 -3.214704,1.48728 -0.475172,1.29852 0.192984,2.73525 1.492418,3.21122 z M 49.646862,961.37583 36.45354,956.54348 c -2.669198,-0.97694 -5.636021,0.43229 -6.630111,3.14693 l -1.245398,3.39998 c 0.9006,0.98638 1.718855,2.30382 1.972737,3.83397 l 2.049075,-5.59571 16.899493,6.18926 -5.028764,13.73111 h 3.37767 l 4.830631,-13.18732 c 0.99323,-2.71467 -0.361953,-5.70808 -3.032011,-6.68587 z m -17.887576,40.28597 -10.396324,-3.80922 c 1.058416,-1.95303 1.681115,-4.24988 1.681115,-6.71755 0,-1.72059 -0.30363,-3.35881 -0.842273,-4.85809 2.145994,-5.51337 5.826435,-14.98254 6.51775,-16.84978 1.392926,-3.76021 -2.712083,-6.41909 -2.712083,-6.41909 l -10.917814,18.60978 c -2.856179,4.96015 -4.209647,7.51698 -4.049257,13.45579 0,0 -3.9652007,4.58532 -7.8274768,6.99036 l 10.5524278,16.806 c 4.266258,-3.9514 6.633542,-5.6334 11.037034,-7.8832 9.192955,-1.2711 12.484851,-5.1832 12.484851,-5.1832 -2.915362,-0.1332 -5.20202,-1.8655 -5.52795,-4.1418 z"
       id="path3" />
  </g>
</svg>
